PathFileType	4	(X/Y/Z)	./resultDataOpenSim/trcMotMarkerGrf/sub06/qtm-05-05.trc
DataRate	CameraRate	NumFrames	NumMarkers	Units	OrigDataRate	OrigDataStartFrame	OrigNumFrames
250.000000	250.000000	12	24	m	250.000000	253	505
Frame#	Time	L.Toe.Tip			R.Toe.Tip			L.Ankle.Lat			R.Ankle.Lat			L.Ankle.Med			R.Ankle.Med			L.Heel			R.Heel			L.Knee.Lat			R.Knee.Lat			L.Knee.Med			R.Knee.Med			L.Thigh.Upper			R.Thigh.Upper			L.ASIS			R.ASIS			V.Sacral			L.Acromium			R.Acromium			C7			L.Elbow			R.Elbow			L.Wrist.Lat			R.Wrist.Lat
		X1	Y1	Z1	X2	Y2	Z2	X3	Y3	Z3	X4	Y4	Z4	X5	Y5	Z5	X6	Y6	Z6	X7	Y7	Z7	X8	Y8	Z8	X9	Y9	Z9	X10	Y10	Z10	X11	Y11	Z11	X12	Y12	Z12	X13	Y13	Z13	X14	Y14	Z14	X15	Y15	Z15	X16	Y16	Z16	X17	Y17	Z17	X18	Y18	Z18	X19	Y19	Z19	X20	Y20	Z20	X21	Y21	Z21	X22	Y22	Z22	X23	Y23	Z23	X24	Y24	Z24

253	1.008	0.046093076	-0.064753245	0.0011263705	0.61691413	0.099805389	0.19698377	-0.060502419	0.0054070304	-0.026767498	0.48304968	0.084806381	0.19965391	-0.052376839	0.023619884	0.057447957	0.50976295	0.11099276	0.11430325	-0.13573682	0.0011008438	0.020495761	0.44592724	0.046401892	0.13155015	0.082677861	0.35367395	-0.048969023	0.48116235	0.47677535	0.21298232	0.066270544	0.35645303	0.072715935	0.46774413	0.45542036	0.093177196	0.19107401	0.72213867	-0.11952274	0.22827012	0.74433508	0.23245351	0.27885583	0.7637267	-0.082396885	0.30441441	0.78244278	0.15981237	0.10790802	0.85534997	0.057677967	0.28705863	1.2604297	-0.12014236	0.25336857	1.238492	0.23869486	0.19538036	1.2888005	0.0508035	0.30026413	0.93849746	-0.19940165	0.070147708	0.98111007	0.28303461	0.52715653	0.83692187	-0.15331276	0.11126274	0.75189599	0.34934883
254	1.012	0.046171955	-0.064746012	0.001096606	0.63425045	0.10051107	0.19626835	-0.059517504	0.0061267567	-0.027081029	0.50043103	0.083597583	0.19886311	-0.051662542	0.024333258	0.057021704	0.52668141	0.11053833	0.11363895	-0.13493833	0.0027328718	0.019934898	0.46409366	0.044821789	0.13046037	0.085804867	0.35368731	-0.048929276	0.48795258	0.47527657	0.21277491	0.069754341	0.35603709	0.072766385	0.4748152	0.45365221	0.092911989	0.19553104	0.72109714	-0.1191605	0.23534226	0.74336235	0.23258228	0.2841202	0.76247475	-0.082551005	0.31146521	0.78162457	0.15964009	0.1137839	0.85425737	0.058933787	0.29363386	1.2595897	-0.11971034	0.26027632	1.2371478	0.23930593	0.20200333	1.2880145	0.051674866	0.30860894	0.93755201	-0.19923676	0.076188651	0.98055886	0.28359434	0.53637068	0.83885593	-0.15115955	0.11565951	0.75128502	0.35044833
255	1.016	0.046266006	-0.064732147	0.0010878503	0.65112485	0.10104365	0.19551773	-0.058525106	0.0068436869	-0.027344817	0.51743856	0.082437755	0.19798806	-0.050953756	0.02501147	0.056603444	0.54309922	0.11020621	0.113011	-0.1341447	0.0043608743	0.019357628	0.48167774	0.043516406	0.12935111	0.089006485	0.35362726	-0.048840528	0.49474449	0.47363874	0.21254776	0.073475393	0.35545492	0.072825268	0.48189113	0.45170495	0.092528394	0.20002603	0.72012266	-0.11861028	0.24188753	0.74202679	0.23247774	0.2893816	0.76118299	-0.082678462	0.31852428	0.78071444	0.1594909	0.11992064	0.8530758	0.060035543	0.30025065	1.2586893	-0.1192792	0.2671824	1.2357555	0.23991826	0.20867506	1.2871827	0.052510636	0.316973	0.93655802	-0.1990298	0.082272916	0.97992523	0.2842193	0.5455151	0.84070617	-0.14901373	0.12010051	0.75059154	0.35154578
256	1.02	0.046355086	-0.064723713	0.0010858497	0.66750878	0.10142191	0.19470437	-0.057615097	0.0076475763	-0.027655659	0.53405191	0.08128676	0.1970011	-0.050168238	0.025702647	0.056225731	0.55896554	0.10997237	0.11241315	-0.1333322	0.0060001672	0.018798958	0.4986243	0.042439366	0.12827716	0.092311472	0.35351137	-0.048709845	0.50152876	0.47188069	0.21227872	0.077405343	0.35474837	0.072899749	0.48893397	0.44962242	0.092061132	0.20457088	0.71918793	-0.11796592	0.24861424	0.74061326	0.23248876	0.29463528	0.75984918	-0.082792783	0.32558839	0.77971633	0.15936292	0.1263824	0.85181107	0.061012743	0.30691179	1.2577271	-0.11884913	0.27409109	1.2343197	0.24053196	0.2154395	1.2862951	0.053256788	0.32537042	0.93551903	-0.19881304	0.088401966	0.97920681	0.28491013	0.55458429	0.84246841	-0.14688223	0.12463825	0.74982175	0.3526581
257	1.024	0.04642589	-0.064727908	0.0010776021	0.68333954	0.10168049	0.19378472	-0.056782772	0.0085563869	-0.028072828	0.55016377	0.080191965	0.19593126	-0.049262698	0.026438047	0.055904903	0.57423075	0.10983405	0.1117993	-0.13245073	0.0076829445	0.018317164	0.51488249	0.041533837	0.12729221	0.095841826	0.35335602	-0.048603909	0.50829565	0.47002405	0.21193878	0.081506427	0.35396967	0.073000286	0.49592174	0.44745167	0.09153946	0.20918331	0.71821971	-0.11734411	0.25565515	0.73919255	0.23268515	0.29987208	0.75848049	-0.082877596	0.33265544	0.77863789	0.15925501	0.13310204	0.85050441	0.061973866	0.31361588	1.2567065	-0.11841928	0.2810051	1.2328466	0.24114537	0.22227933	1.2853577	0.053934704	0.33381083	0.93443899	-0.19861529	0.094583224	0.97840183	0.28565751	0.56357806	0.84414493	-0.14476566	0.12930691	0.74898668	0.35379146
258	1.028	0.046481132	-0.064741311	0.0010610221	0.69854446	0.10185549	0.1927043	-0.055939847	0.0095187695	-0.028557368	0.56560471	0.079254847	0.19485006	-0.04825015	0.027216697	0.055629179	0.58884424	0.10979419	0.11112855	-0.13146926	0.0094288753	0.017940439	0.53040077	0.040763111	0.12638239	0.099719744	0.35316436	-0.048596868	0.51506032	0.46809584	0.2115228	0.085741153	0.35318538	0.073121824	0.50286308	0.44523293	0.090969612	0.21387708	0.71718425	-0.11677901	0.26289848	0.73774754	0.23302275	0.3050502	0.75710229	-0.08289311	0.33971483	0.77748425	0.15916173	0.13992456	0.84920973	0.063049995	0.32035969	1.2556393	-0.11798963	0.28792784	1.2313439	0.24175694	0.22916506	1.2843816	0.054584747	0.342271	0.93331939	-0.1984273	0.10082883	0.97750849	0.28646068	0.57249789	0.84573918	-0.14266412	0.13416277	0.74810233	0.35494885
259	1.032	0.046529797	-0.064757062	0.0010420196	0.71306754	0.10196861	0.19142551	-0.055001244	0.01048169	-0.029015056	0.58025253	0.078515596	0.19379529	-0.047152879	0.028024737	0.055377772	0.60276402	0.10983004	0.11039616	-0.13039565	0.011230417	0.017649371	0.54512746	0.04011248	0.12546224	0.10391896	0.35292283	-0.048677232	0.52185947	0.46612298	0.21105332	0.090097579	0.35247514	0.073210712	0.5097737	0.44300136	0.090343757	0.21865782	0.71609892	-0.11623319	0.27048549	0.73639407	0.23357702	0.31013672	0.75574279	-0.082820502	0.34675799	0.77625575	0.15907524	0.14678768	0.84796027	0.064267387	0.32713947	1.2545384	-0.11756017	0.2948648	1.2298197	0.24236788	0.23608097	1.2833733	0.055231226	0.3507027	0.93216326	-0.19820609	0.10715902	0.97652412	0.28731772	0.58134488	0.84725151	-0.14057739	0.13926103	0.74717884	0.35613163
260	1.036	0.046577242	-0.064772647	0.0010268776	0.72687445	0.10201972	0.18994831	-0.053941302	0.011432425	-0.029390759	0.59407145	0.077915705	0.19274422	-0.045979202	0.028847089	0.055131233	0.61596696	0.10988915	0.10961923	-0.12925388	0.013064997	0.017404189	0.55902524	0.039555496	0.12446488	0.10827233	0.3526127	-0.048754269	0.52872271	0.46412672	0.21055164	0.094644543	0.35190507	0.073131578	0.51665643	0.44078994	0.089652508	0.22352752	0.7149942	-0.11566558	0.27857948	0.73524656	0.23442303	0.31519562	0.75440682	-0.082705884	0.35379072	0.77495186	0.15899164	0.15374968	0.8467516	0.065533286	0.33395219	1.2534123	-0.11712865	0.30182116	1.2282821	0.24298272	0.2430232	1.2823359	0.055884273	0.35907817	0.93098074	-0.19791274	0.11359017	0.97545158	0.28821056	0.59011876	0.84867781	-0.13850744	0.14459092	0.74621222	0.35733363
261	1.04	0.046620663	-0.06479172	0.0010172044	0.73994169	0.10199503	0.18830102	-0.052781878	0.012386934	-0.029696482	0.60706215	0.077363505	0.19165629	-0.044730579	0.029671425	0.05487534	0.62844068	0.10990948	0.10880933	-0.12805798	0.014916225	0.017174534	0.57207358	0.039041005	0.12339679	0.11265425	0.35222681	-0.048766869	0.53565478	0.46212433	0.2100158	0.099532496	0.35146747	0.072743172	0.52351508	0.43862297	0.088894955	0.22848948	0.71388619	-0.11506402	0.28696983	0.73421047	0.23543622	0.3203702	0.75307364	-0.082634356	0.36082977	0.77357932	0.15891293	0.16083837	0.84553971	0.066744925	0.34079644	1.2522659	-0.11669183	0.30879812	1.2267372	0.24360613	0.24999489	1.281275	0.056550351	0.36740525	0.92978769	-0.19753263	0.12012557	0.97430179	0.28910943	0.598818	0.85001323	-0.13645964	0.1501024	0.74519318	0.35854743
262	1.044	0.046650006	-0.064821123	0.0010108802	0.75224632	0.10188224	0.18652151	-0.051549363	0.013362121	-0.02996633	0.6192265	0.076786082	0.19051003	-0.043401921	0.030502435	0.054613797	0.64016103	0.10983324	0.1079507	-0.12679991	0.016792745	0.016954502	0.58425961	0.038510054	0.12230061	0.1170786	0.35177129	-0.048731015	0.54264715	0.46013811	0.20943046	0.10484093	0.35103842	0.072112573	0.53036897	0.43651577	0.088081537	0.23355007	0.71277556	-0.11443118	0.29520216	0.73306623	0.23635843	0.32575189	0.75171888	-0.082658956	0.36788857	0.77215312	0.15884111	0.16798232	0.84428194	0.067861357	0.34767175	1.2511041	-0.11624576	0.31579249	1.2251893	0.24423989	0.25700048	1.2801983	0.057236501	0.37570135	0.92859694	-0.19707648	0.12676238	0.97308859	0.28999128	0.60743989	0.8512552	-0.1344388	0.15577113	0.74411896	0.35977326
263	1.048	0.046657847	-0.064864166	0.0010063277	0.76376234	0.10167834	0.18464486	-0.05025313	0.014364435	-0.030224547	0.63057348	0.076128654	0.18930413	-0.041975817	0.031369764	0.054370109	0.65108588	0.10961241	0.10699924	-0.12545792	0.018726733	0.016757532	0.59558327	0.03790203	0.12120724	0.12162326	0.35125514	-0.048685799	0.54969412	0.45820351	0.20879082	0.11044737	0.35044852	0.071554997	0.53724116	0.434482	0.087224208	0.23871738	0.71165735	-0.11376872	0.30300733	0.73169396	0.23702773	0.33131869	0.75032317	-0.082785907	0.374978	0.77069156	0.15878001	0.17512123	0.84299637	0.068892887	0.3545767	1.2499356	-0.11578291	0.32280221	1.2236415	0.24488467	0.26403843	1.2791088	0.057948687	0.38397357	0.92741353	-0.19658369	0.13349794	0.97182389	0.29085308	0.6159802	0.85240224	-0.13244815	0.1615997	0.74299395	0.36101548
264	1.052	0.046652302	-0.064912942	0.0010057876	0.7744631	0.10138348	0.18269267	-0.048895245	0.015393468	-0.030483822	0.64112828	0.075341471	0.18804407	-0.040436155	0.032302393	0.054159191	0.66117845	0.10921425	0.10590699	-0.12401874	0.020744695	0.016593514	0.60607032	0.037145106	0.12012108	0.1263385	0.35068422	-0.048645923	0.55678834	0.45636553	0.20811243	0.1161209	0.34964418	0.071333703	0.54413708	0.43253501	0.086323974	0.24399947	0.71052621	-0.11307767	0.31046037	0.73014733	0.23746787	0.33700079	0.7488729	-0.083006381	0.38211146	0.76921361	0.15873984	0.18229914	0.84175437	0.069865885	0.36150874	1.2487739	-0.11529224	0.32982938	1.2220957	0.24554486	0.27110306	1.2780058	0.058690779	0.39222338	0.92623677	-0.1961191	0.14032924	0.97051964	0.29170413	0.62443567	0.85345514	-0.13049062	0.16759064	0.74182749	0.36227392
